HIERARCHY
ROOT Hips
{
 OFFSET 0.000000 0.000000 0.000000
 CHANNELS 6 Xposition Yposition Zposition Zrotation Xrotation Yrotation
 JOINT Chest
 {
  OFFSET 0.000000 4.000000 0.000000
  CHANNELS 3 Zrotation Xrotation Yrotation
  JOINT Head
  {
   OFFSET 0.000000 24.803150 0.000000
   CHANNELS 3 Zrotation Xrotation Yrotation
   End Site
   {
    OFFSET 0.000000 9.448819 0.000000
   }
  }
  JOINT LeftUpArm
  {
   OFFSET 7.086614 23.228346 0.000000
   CHANNELS 3 Zrotation Xrotation Yrotation
   JOINT LeftLowArm
   {
    OFFSET 0.000000 -11.811024 0.000000
    CHANNELS 3 Zrotation Xrotation Yrotation
    End Site
    {
     OFFSET 0.000000 -11.811024 0.000000
    }
   }
  }
  JOINT RightUpArm
  {
   OFFSET -7.086614 23.228346 0.000000
   CHANNELS 3 Zrotation Xrotation Yrotation
   JOINT RightLowArm
   {
    OFFSET 0.000000 -11.811024 0.000000
    CHANNELS 3 Zrotation Xrotation Yrotation
    End Site
    {
     OFFSET 0.000000 -11.811024 0.000000
    }
   }
  }
 }
 JOINT LeftUpLeg
 {
  OFFSET 3.937008 0.000000 0.000000
  CHANNELS 3 Zrotation Xrotation Yrotation
  JOINT LeftLowLeg
  {
   OFFSET 0.000000 -16.929134 0.000000
   CHANNELS 3 Zrotation Xrotation Yrotation
   End Site
   {
    OFFSET 0.000000 -19.685040 0.000000
   }
  }
 }
 JOINT RightUpLeg
 {
  OFFSET -3.937008 0.000000 0.000000
  CHANNELS 3 Zrotation Xrotation Yrotation
  JOINT RightLowLeg
  {
   OFFSET 0.000000 -16.929134 0.000000
   CHANNELS 3 Zrotation Xrotation Yrotation
   End Site
   {
    OFFSET 0.000000 -19.685040 0.000000
   }
  }
 }
}
MOTION
Frames: 19      
Frame Time: 0.033333
-156.986237 3.928831 51.347271 -5.990398 2.225582 99.294907 4.105043 5.460809 -4.198229 -1.992224 -6.188537 24.191105 5.387341 -14.155286 -8.611705 -3.410111 -12.643730 -21.251352 -6.240985 1.066062 0.474898 -4.218691 9.862230 12.079864 1.911254 -15.562629 2.889034 9.962734 64.442558 -16.449093 -3.272379 -26.433191 -6.399529 -5.372252 26.643061 2.633223
-155.070160 4.148564 51.602161 -5.902847 2.463726 99.134644 3.740090 5.591412 -3.552752 -1.812822 -5.108502 23.901140 5.345826 -10.570102 -6.638279 -3.349759 -8.412421 -23.409603 -6.769259 -0.633128 3.022284 -2.522354 6.877739 12.304062 2.063893 -22.733393 0.600168 7.028096 72.346603 -14.045576 -2.484270 -22.237223 -5.624408 -4.775770 24.573387 0.721513
-154.120911 4.236457 51.725212 -5.866179 2.589169 98.904800 3.438296 5.656720 -3.092373 -1.761751 -4.454489 23.868797 5.483546 -8.831018 -5.359161 -3.081065 -6.309021 -24.267885 -7.067186 -1.662254 4.066223 -1.778307 5.016628 12.727869 1.890888 -26.119259 -0.485956 4.023268 74.209297 -11.397149 -2.258894 -20.166306 -4.888842 -4.211605 23.546144 -0.448394
-152.336685 4.341929 51.971313 -5.832036 2.784613 98.173363 2.760748 5.651155 -1.886447 -1.827063 -2.900863 24.158682 5.864333 -5.250342 -2.325164 -2.010308 -2.690783 -25.321894 -7.513865 -3.769180 5.862671 -0.851027 1.545719 11.712157 1.301221 -32.084949 -1.196102 -1.282742 73.597664 -7.633864 -1.536795 -16.372341 -3.740947 -3.824238 21.517168 -1.576016
-151.405014 4.350718 52.006470 -5.829399 2.865407 97.785667 2.261066 5.654468 -1.316170 -1.758568 -2.245454 24.324219 6.291224 -3.535195 -0.649368 -1.313264 -1.320949 -25.356909 -7.669659 -4.903924 6.690119 -0.751940 -0.581011 10.411172 0.661838 -34.470173 -1.602202 -3.360883 71.128517 -6.413614 -1.283208 -14.572468 -3.771075 -3.751669 20.700962 -1.456324
-149.629562 4.262825 52.085575 -5.806823 2.972378 96.664734 1.351327 5.557977 0.131257 -1.759279 -1.010440 24.865412 7.117386 -0.111480 2.523184 -0.262812 0.504662 -24.807529 -7.893451 -7.220265 8.334447 -0.691845 -4.770934 7.396274 -0.447374 -37.317802 -2.126017 -7.566525 61.125862 -2.793111 -0.624392 -11.017463 -4.090723 -4.268205 18.843603 -0.403152
-149.629562 4.271615 52.085575 -5.810451 2.973463 96.659386 1.346240 5.551339 0.128003 -1.763807 -1.000816 24.877268 7.115565 -0.092740 2.535822 -0.243297 0.485229 -24.803835 -7.909695 -7.251199 8.397964 -0.730457 -4.838938 7.278249 -0.431050 -37.368469 -2.113116 -7.637318 61.076298 -2.740213 -0.665624 -10.994571 -4.091699 -4.250317 18.840794 -0.417459
-147.836548 4.078249 52.103153 -5.708914 2.984489 95.299698 0.365676 5.534751 1.538238 -1.828322 -0.091575 25.530146 8.056178 3.013490 5.074072 0.576707 1.604820 -24.045841 -7.747967 -9.790860 10.361560 -0.484392 -8.179835 4.284113 -0.836407 -38.863094 -2.968253 -9.645681 47.067242 0.434659 -0.045401 -7.211845 -4.713541 -4.653294 17.043686 1.250387
-145.867737 3.744255 52.103153 -5.535527 2.928735 93.961075 -0.452840 5.421632 2.657963 -1.811487 0.546413 25.989664 8.625916 5.760640 7.161523 1.219007 2.296973 -23.698784 -7.582095 -11.896808 12.299791 -0.208463 -11.006565 2.141242 -1.426124 -39.810833 -6.619692 -9.725263 34.056599 4.557848 0.447092 -3.556682 -5.171885 -4.731906 16.156878 2.690081
-144.813019 3.577258 52.076786 -5.415780 2.880793 93.302483 -0.790553 5.347553 3.159023 -1.859412 0.744193 25.949522 8.722486 6.948122 8.090556 1.529939 2.449631 -23.772495 -7.488864 -12.885711 13.019441 -0.361110 -12.372285 1.611220 -1.426288 -40.127163 -8.243951 -8.712082 28.455799 6.462201 0.577803 -1.721044 -5.691514 -4.991454 16.031847 3.900770
-143.687973 3.375103 52.032837 -5.272054 2.887179 92.657661 -1.181767 5.232769 3.626949 -1.823416 0.969029 25.735067 8.842298 7.961465 8.873810 1.736036 2.582584 -23.941982 -7.423708 -13.542618 13.607536 -0.281485 -13.555846 1.356540 -1.547925 -40.192371 -9.307755 -6.818246 24.377106 7.552201 0.672050 -0.086910 -6.307443 -5.486053 16.489304 5.207962
-141.393967 2.997162 51.936153 -4.922370 3.039525 91.497330 -2.093134 4.790963 4.271132 -1.981504 1.525671 24.446188 8.938271 9.392676 9.921184 1.950164 2.928503 -24.286558 -7.247268 -14.122817 14.229116 -0.074539 -15.190138 1.188016 -1.621084 -39.788944 -8.277296 -4.800928 20.584446 6.564601 0.099979 2.367872 -8.871261 -6.986553 19.741711 8.331245
-140.198608 2.953215 51.839474 -4.626302 3.025031 90.971603 -2.458725 4.577379 4.459827 -2.145225 2.027411 23.388847 8.958192 9.683982 10.012465 1.966669 3.208819 -24.288002 -7.085736 -13.906659 13.930884 0.108519 -15.739500 1.531087 -1.414925 -39.259514 -6.580524 -4.636039 21.163198 4.578897 -0.348205 2.965333 -10.655010 -8.415452 22.746374 10.062093
-137.834290 2.944426 51.549423 -4.158632 3.155224 90.041107 -3.372600 4.266869 4.454003 -2.424369 2.989771 20.649576 8.748971 8.956256 9.280201 2.121459 3.653022 -24.017824 -6.655194 -12.763806 12.722959 0.584696 -16.290680 2.595273 -2.219595 -37.283974 -4.320669 -4.261107 24.637884 -0.230792 -1.316679 1.209508 -13.260949 -13.365733 32.674011 13.588088
-136.682877 3.014740 51.417583 -3.964064 3.107413 89.537796 -3.689626 4.232389 4.335054 -2.616163 3.243910 18.889631 8.682207 7.998531 8.340664 2.099849 3.627727 -23.810509 -6.373700 -11.977226 11.945752 0.891193 -16.371973 3.536131 -2.341468 -35.995937 -2.657351 -3.348051 26.696230 -3.291538 -1.327689 -0.913278 -14.190813 -17.714075 38.957481 16.531322
-134.450394 3.252052 51.083591 -3.782399 3.011199 88.621002 -3.926709 4.233337 3.637006 -3.322983 3.501890 15.728579 8.560255 5.225260 5.349420 1.392274 2.651392 -23.252811 -6.044765 -10.570635 10.813018 1.622234 -15.832925 5.135441 -2.721690 -32.924988 -2.081624 -2.275615 28.967287 -4.749129 -0.742112 -7.215888 -17.096703 -30.219460 51.339161 25.602352
-133.395676 3.348735 50.925381 -3.826162 3.009976 88.159775 -3.901210 4.305277 3.188070 -3.879392 3.261902 14.143349 8.572009 3.241125 2.994967 0.831116 1.812673 -22.873960 -5.900037 -9.907267 10.087947 1.906567 -15.305924 6.323202 -2.863543 -30.676737 -1.814119 -2.003664 28.888405 -4.514104 -1.439523 -10.594375 -19.131659 -37.834717 56.527542 32.433102
-131.312607 3.629994 50.679279 -4.023906 2.682865 87.827286 -3.342156 4.481732 1.796186 -4.917174 3.027509 11.789960 9.436734 -1.271339 -1.733202 -0.510909 -0.548278 -22.385601 -5.876335 -8.339355 8.624003 1.952786 -14.347350 8.051512 -2.596999 -26.774008 -1.086045 -1.518567 27.667351 -3.999033 -2.981578 -18.193165 -20.767431 -49.712574 64.842453 42.475471
-130.222717 3.788202 50.591389 -4.149787 2.510248 87.869102 -2.857036 4.570971 0.887652 -5.463707 2.956774 10.920471 9.808501 -3.956271 -4.106894 -0.932524 -1.772414 -21.883713 -6.072186 -7.317726 7.414946 2.153541 -13.804425 9.140768 -2.342398 -24.626085 -1.109617 -1.833105 26.607254 -3.242732 -3.382851 -21.857931 -20.969141 -54.076866 68.009674 45.019325
